<svg xmlns="http://www.w3.org/2000/svg" width="16" height="16" viewBox="0 0 16 16"><g><g><path fill="#fff" d="M15.202 3.581v8.837a2.786 2.786 0 0 1-2.784 2.783H3.582a2.786 2.786 0 0 1-2.784-2.783V3.581A2.787 2.787 0 0 1 3.582.798h8.836a2.787 2.787 0 0 1 2.784 2.783zm-4.008-1.166l.008 2.39 2.408-.007V2.407l-.315.001zM5.59 8A2.413 2.413 0 0 0 8 10.41 2.413 2.413 0 0 0 10.41 8c0-.535-.413-2.41-2.41-2.41S5.59 7.465 5.59 8zm8.034-1.603h-1.976c.186.456.29 1.08.29 1.603A3.943 3.943 0 0 1 8 11.94 3.943 3.943 0 0 1 4.06 8c0-.523.105-1.147.29-1.603h-2v5.846c0 .762.62 1.38 1.38 1.38h8.512c.761 0 1.38-.618 1.38-1.38z"/></g></g></svg>