<svg xmlns="http://www.w3.org/2000/svg" width="15" height="13" viewBox="0 0 15 13"><g><g><path fill="#fff" d="M15.002 1.823c-.56.241-1.16.404-1.792.477A3.051 3.051 0 0 0 14.582.625c-.603.347-1.27.599-1.98.735a3.159 3.159 0 0 0-2.277-.956c-1.723 0-3.12 1.355-3.12 3.028 0 .236.028.467.081.689A8.945 8.945 0 0 1 .856.957 2.95 2.95 0 0 0 .434 2.48c0 1.05.55 1.978 1.388 2.52a3.186 3.186 0 0 1-1.413-.378v.038c0 1.467 1.075 2.69 2.502 2.969a3.216 3.216 0 0 1-1.409.051c.397 1.203 1.55 2.078 2.914 2.103a6.38 6.38 0 0 1-3.874 1.296c-.252 0-.5-.015-.744-.043 1.38.86 3.02 1.361 4.782 1.361 5.737 0 8.874-4.613 8.874-8.614 0-.13-.002-.263-.008-.392a6.232 6.232 0 0 0 1.556-1.567z"/></g></g></svg>